# xmcd CD database file
#
# Track frame offsets:
#	150
#	15530
#	30316
#	45345
#	64046
#	76834
#	92349
#	111995
#	125809
#	138057
#	153707
#	170815
#
# Disc length: 2494 seconds
#
# Revision: 1
# Processed by: cddbd v1.5.1PL0 Copyright (c) Steve Scherf et al.
# Submitted via: CDex 1.51
#
DISCID=8f09bc0c
DTITLE=Shelly Bush - Keep Messin' With Me
DYEAR=2004
DGENRE=Country
TTITLE0=Keep messin' with me
TTITLE1=Wrong
TTITLE2=Look where it got me
TTITLE3=Love without fear
TTITLE4=Finally hit home
TTITLE5=Right next to me
TTITLE6=Heart he's using you
TTITLE7=Why cry
TTITLE8=Crazy again
TTITLE9=Till I see you again
TTITLE10=That's how much
TTITLE11=Don't think of me
EXTD=YEAR: 2004
EXTT0=
EXTT1=
EXTT2=
EXTT3=
EXTT4=
EXTT5=
EXTT6=
EXTT7=
EXTT8=
EXTT9=
EXTT10=
EXTT11=
PLAYORDER=
